<?xml version="1.0" encoding="UTF-8"?>
<!DOCTYPE svg PUBLIC "-//W3C//DTD SVG 1.1//EN" "http://www.w3.org/Graphics/SVG/1.1/DTD/svg11.dtd">
<!-- Creator: CorelDRAW 2020 (64-Bit) -->
<svg xmlns="http://www.w3.org/2000/svg" xml:space="preserve" width="1.2in" height="1.1in" version="1.1" style="shape-rendering:geometricPrecision; text-rendering:geometricPrecision; image-rendering:optimizeQuality; fill-rule:evenodd; clip-rule:evenodd"
viewBox="0 0 217.93 190.03"
 xmlns:xlink="http://www.w3.org/1999/xlink"
 xmlns:xodm="http://www.corel.com/coreldraw/odm/2003">
 <defs>
  <style type="text/css">
   <![CDATA[
    .fil0 {fill:#FEFEFE}
   ]]>
  </style>
 </defs>
 <g id="Layer_x0020_1">
  <metadata id="CorelCorpID_0Corel-Layer"/>
  <g id="_2553628163008">
   <circle class="fil0" cx="11.33" cy="11.33" r="11.33"/>
   <circle class="fil0" cx="60.15" cy="11.33" r="11.33"/>
   <circle class="fil0" cx="108.96" cy="11.33" r="11.33"/>
   <circle class="fil0" cx="157.78" cy="11.33" r="11.33"/>
   <path class="fil0" d="M206.6 0c6.26,0 11.33,5.07 11.33,11.33l0 41.84c0,6.26 -5.07,11.33 -11.33,11.33 -6.26,0 -11.33,-5.07 -11.33,-11.33l0 -41.84c0,-6.26 5.07,-11.33 11.33,-11.33z"/>
   <circle class="fil0" cx="11.33" cy="53.17" r="11.33"/>
   <path class="fil0" d="M62.46 64.27c-0.75,0.15 -1.52,0.24 -2.31,0.24 -6.26,0 -11.33,-5.07 -11.33,-11.33 0,-6.26 5.07,-11.33 11.33,-11.33l48.82 0 2.31 0 0 0.24c5.15,1.07 9.02,5.63 9.02,11.1 0,6.26 -5.07,11.33 -11.33,11.33 -0.79,0 -1.56,-0.08 -2.31,-0.24l-44.19 0z"/>
   <circle class="fil0" cx="157.78" cy="53.17" r="11.33"/>
   <path class="fil0" d="M11.33 83.68c6.26,0 11.33,5.07 11.33,11.33l0 41.84c0,6.26 -5.07,11.33 -11.33,11.33 -6.26,0 -11.33,-5.07 -11.33,-11.33l0 -41.84c0,-6.26 5.07,-11.33 11.33,-11.33z"/>
   <circle class="fil0" cx="60.15" cy="95.02" r="11.33"/>
   <circle class="fil0" cx="108.96" cy="95.02" r="11.33"/>
   <circle class="fil0" cx="157.78" cy="95.02" r="11.33"/>
   <circle class="fil0" cx="206.6" cy="95.02" r="11.33"/>
   <circle class="fil0" cx="60.15" cy="136.86" r="11.33"/>
   <path class="fil0" d="M108.96 148.19c-6.26,0 -11.33,-5.07 -11.33,-11.33 0,-6.26 5.07,-11.33 11.33,-11.33l48.82 0c6.26,0 11.33,5.07 11.33,11.33 0,6.26 -5.07,11.33 -11.33,11.33l-48.82 0z"/>
   <circle class="fil0" cx="206.6" cy="136.86" r="11.33"/>
   <circle class="fil0" cx="11.33" cy="178.7" r="11.33"/>
   <circle class="fil0" cx="60.15" cy="178.7" r="11.33"/>
   <circle class="fil0" cx="108.96" cy="178.7" r="11.33"/>
   <circle class="fil0" cx="157.78" cy="178.7" r="11.33"/>
   <circle class="fil0" cx="206.6" cy="178.7" r="11.33"/>
  </g>
 </g>
</svg>
